<?xml version="1.0" encoding="UTF-8" standalone="no" ?>
<!DOCTYPE svg PUBLIC "-//W3C//DTD SVG 1.1//EN" "http://www.w3.org/Graphics/SVG/1.1/DTD/svg11.dtd">
<svg xmlns="http://www.w3.org/2000/svg" xmlns:xlink="http://www.w3.org/1999/xlink" version="1.1" width="500" height="500" viewBox="0 0 500 500" xml:space="preserve">
<desc>Created with Fabric.js 3.6.3</desc>
<defs>
</defs>
<g transform="matrix(0.5 0 0 0.5 250.25 250.25)"  >
<rect style="stroke: none; stroke-width: 1; stroke-dasharray: none; stroke-linecap: butt; stroke-dashoffset: 0; stroke-linejoin: miter; stroke-miterlimit: 4; fill: rgb(0,0,0); fill-rule: nonzero; opacity: 1;"  x="-500" y="-500" rx="0" ry="0" width="1000" height="1000" />
</g>
<g transform="matrix(1.1962445516404572 0 0 1.1962445516404572 100.5 250)"  >
<path style="stroke: none; stroke-width: 0; stroke-dasharray: none; stroke-linecap: butt; stroke-dashoffset: 0; stroke-linejoin: miter; stroke-miterlimit: 4; fill: rgb(255,152,0); fill-rule: nonzero; opacity: 1;"  transform=" translate(-49.99747354454659, -50.007121499999165)" d="m 60.598 84.73 h -7.0664 c -0.64844 0 -1.1719 -0.52344 -1.1719 -1.1719 c 0 -0.64844 0.52344 -1.1719 1.1719 -1.1719 c 10.066 0 18.254 -8.1914 18.254 -18.258 v -34.152 h -5.8945 c -0.47266 0 -0.89844 -0.28516 -1.082 -0.72266 c -0.17969 -0.4375 -0.078125 -0.94141 0.25391 -1.2773 l 12.367 -12.367 c 0.4375 -0.4375 1.2188 -0.44141 1.6602 0.003906 l 12.363 12.367 c 0.33203 0.33203 0.43359 0.83594 0.25391 1.2773 c -0.18359 0.4375 -0.60938 0.72266 -1.082 0.72266 h -5.8945 v 30.621 c 0 13.305 -10.828 24.133 -24.133 24.133 z m 8.125 -57.098 h 4.2344 c 0.64844 0 1.1719 0.52344 1.1719 1.1719 v 35.324 c 0 7.7852 -4.3398 14.574 -10.727 18.078 c 10.695 -1.3828 18.98 -10.547 18.98 -21.609 v -31.793 c 0 -0.64844 0.52344 -1.1719 1.1719 -1.1719 h 4.2344 l -9.5352 -9.5352 l -9.5352 9.5352 z m -32.855 57.098 c -15.254 0 -27.668 -12.41 -27.668 -27.668 c 0 -15.254 12.41 -27.668 27.668 -27.668 c 15.254 0 27.664 12.41 27.664 27.668 c 0 15.254 -12.41 27.668 -27.664 27.668 z m 0 -52.992 c -13.965 0 -25.324 11.359 -25.324 25.324 s 11.359 25.324 25.324 25.324 c 13.961 0 25.32 -11.359 25.32 -25.324 s -11.359 -25.324 -25.32 -25.324 z m 0 44.16 c -0.64844 0 -1.1719 -0.52344 -1.1719 -1.1719 v -2.4453 c -3.9883 -0.57031 -7.0664 -4.0117 -7.0664 -8.1562 c 0 -0.64844 0.52344 -1.1719 1.1719 -1.1719 c 0.64844 0 1.1719 0.52344 1.1719 1.1719 c 0 3.25 2.6445 5.8945 5.8945 5.8945 s 5.8945 -2.6445 5.8945 -5.8945 s -2.6445 -5.8945 -5.8945 -5.8945 c -4.5391 0 -8.2383 -3.6953 -8.2383 -8.2383 c 0 -4.1445 3.0781 -7.582 7.0664 -8.1562 v -2.4453 c 0 -0.64844 0.52344 -1.1719 1.1719 -1.1719 c 0.64844 0 1.1719 0.52344 1.1719 1.1719 v 2.4453 c 3.9883 0.57031 7.0664 4.0117 7.0664 8.1562 c 0 0.64844 -0.52344 1.1719 -1.1719 1.1719 c -0.64844 0 -1.1719 -0.52344 -1.1719 -1.1719 c 0 -3.25 -2.6445 -5.8945 -5.8945 -5.8945 s -5.8945 2.6445 -5.8945 5.8945 s 2.6445 5.8945 5.8945 5.8945 c 4.5391 0 8.2383 3.6953 8.2383 8.2383 c 0 4.1445 -3.0781 7.582 -7.0664 8.1562 v 2.4453 c 0 0.64844 -0.52344 1.1719 -1.1719 1.1719 z" stroke-linecap="round" />
</g>
<g transform="matrix(1 0 0 1 318.4812353628653 265.5160298900463)" style=""  ><path fill="#FF9800" opacity="1" d="M-145.86-58.50L-134.34-26.75L-138.28-26.75L-142.32-37.86L-155.20-37.86L-159.32-26.75L-161.55-26.75L-149.80-58.50L-145.86-58.50ZM-154.43-39.95L-143.09-39.95L-148.71-55.46L-154.43-39.95Z"/><path fill="#FF9800" opacity="1" d="M-106.56-54.48Q-102.68-50.01-102.68-42.62Q-102.68-35.23-106.56-30.76Q-110.44-26.30-117.33-26.30L-117.33-26.30Q-121.77-26.30-125.72-26.75L-125.72-26.75L-129.35-26.75L-129.35-58.50L-125.72-58.50Q-121.77-58.95-117.33-58.95L-117.33-58.95Q-110.44-58.95-106.56-54.48ZM-109.89-32.62Q-107.13-36.86-107.13-42.62Q-107.13-48.38-109.89-52.62Q-112.66-56.86-117.33-56.86L-117.33-56.86Q-121.68-56.86-125.63-56.41L-125.63-56.41L-125.63-28.84Q-121.68-28.38-117.33-28.38L-117.33-28.38Q-112.66-28.38-109.89-32.62Z"/><path fill="#FF9800" opacity="1" d="M-84.91-58.50L-73.39-26.75L-77.33-26.75L-81.37-37.86L-94.25-37.86L-98.37-26.75L-100.60-26.75L-88.85-58.50L-84.91-58.50ZM-93.48-39.95L-82.14-39.95L-87.76-55.46L-93.48-39.95Z"/><path fill="#FF9800" opacity="1" d="M-44.59-49.88L-44.59-49.88Q-44.59-45.25-48.06-43.01Q-51.53-40.76-57.20-40.76L-57.20-40.76Q-60.78-40.76-64.68-41.49L-64.68-41.49L-64.68-26.75L-68.40-26.75L-68.40-58.50L-64.77-58.50Q-61.19-58.95-57.20-58.95L-57.20-58.95Q-51.53-58.95-48.06-56.70Q-44.59-54.46-44.59-49.88ZM-49.03-49.88L-49.03-49.88Q-49.03-52.87-51.46-54.87Q-53.89-56.86-57.20-56.86L-57.20-56.86Q-61.10-56.86-64.68-56.41L-64.68-56.41L-64.68-43.58Q-60.78-42.85-57.20-42.85L-57.20-42.85Q-53.89-42.85-51.46-44.84Q-49.03-46.84-49.03-49.88Z"/><path fill="#FF9800" opacity="1" d="M-16.02-58.50L-16.02-56.41L-26.63-56.41L-26.63-26.75L-30.35-26.75L-30.35-56.41L-40.96-56.41L-40.96-58.50L-16.02-58.50Z"/><path fill="#FF9800" opacity="1" d="M-133.66-8.88L-133.66-8.88Q-133.66-4.26-137.13-2.01Q-140.59 0.23-146.26 0.23L-146.26 0.23Q-149.85 0.23-153.75-0.49L-153.75-0.49L-153.75 14.25L-157.47 14.25L-157.47-17.50L-153.84-17.50Q-150.25-17.95-146.26-17.95L-146.26-17.95Q-140.59-17.95-137.13-15.71Q-133.66-13.46-133.66-8.88ZM-138.10-8.88L-138.10-8.88Q-138.10-11.88-140.53-13.87Q-142.95-15.87-146.26-15.87L-146.26-15.87Q-150.16-15.87-153.75-15.41L-153.75-15.41L-153.75-2.58Q-149.85-1.85-146.26-1.85L-146.26-1.85Q-142.95-1.85-140.53-3.85Q-138.10-5.84-138.10-8.88Z"/><path fill="#FF9800" opacity="1" d="M-111.39-0.13L-101.73 14.25L-106.17 14.25L-115.65 0.23Q-119.24 0.23-123.14-0.49L-123.14-0.49L-123.14 14.25L-126.85 14.25L-126.85-17.50L-123.23-17.50Q-119.64-17.95-115.65-17.95L-115.65-17.95Q-109.98-17.95-106.51-15.71Q-103.05-13.46-103.05-8.88L-103.05-8.88Q-103.05-5.21-105.27-3.05Q-107.49-0.90-111.39-0.13L-111.39-0.13ZM-107.49-8.88L-107.49-8.88Q-107.49-11.88-109.92-13.87Q-112.34-15.87-115.65-15.87L-115.65-15.87Q-119.55-15.87-123.14-15.41L-123.14-15.41L-123.14-2.58Q-119.24-1.85-115.65-1.85L-115.65-1.85Q-112.34-1.85-109.92-3.85Q-107.49-5.84-107.49-8.88Z"/><path fill="#FF9800" opacity="1" d="M-73.93-13.49Q-70.21-9.02-70.21-1.63Q-70.21 5.77-73.93 10.23Q-77.65 14.70-84.36 14.70L-84.36 14.70Q-91.12 14.70-94.84 10.23Q-98.56 5.77-98.56-1.63Q-98.56-9.02-94.84-13.49Q-91.12-17.95-84.36-17.95L-84.36-17.95Q-77.65-17.95-73.93-13.49ZM-75.59 5.63Q-74.66 2.55-74.66-1.63Q-74.66-5.80-75.59-8.88Q-76.52-11.97-78.74-13.92Q-80.96-15.87-84.36-15.87L-84.36-15.87Q-89.39-15.87-91.75-11.97Q-94.11-8.07-94.11-1.63Q-94.11 4.81-91.75 8.71Q-89.39 12.61-84.36 12.61L-84.36 12.61Q-80.96 12.61-78.74 10.66Q-76.52 8.71-75.59 5.63Z"/><path fill="#FF9800" opacity="1" d="M-31.44-17.50L-29.62 14.25L-33.34 14.25L-34.84-11.78L-47.26 14.25L-48.94 14.25L-61.23-11.47L-62.68 14.25L-64.77 14.25L-62.96-17.50L-59.96-17.50L-47.17 9.30L-34.43-17.50L-31.44-17.50Z"/><path fill="#FF9800" opacity="1" d="M0.44-13.49Q4.16-9.02 4.16-1.63Q4.16 5.77 0.44 10.23Q-3.28 14.70-9.99 14.70L-9.99 14.70Q-16.74 14.70-20.46 10.23Q-24.18 5.77-24.18-1.63Q-24.18-9.02-20.46-13.49Q-16.74-17.95-9.99-17.95L-9.99-17.95Q-3.28-17.95 0.44-13.49ZM-1.21 5.63Q-0.28 2.55-0.28-1.63Q-0.28-5.80-1.21-8.88Q-2.14-11.97-4.36-13.92Q-6.59-15.87-9.99-15.87L-9.99-15.87Q-15.02-15.87-17.38-11.97Q-19.74-8.07-19.74-1.63Q-19.74 4.81-17.38 8.71Q-15.02 12.61-9.99 12.61L-9.99 12.61Q-6.59 12.61-4.36 10.66Q-2.14 8.71-1.21 5.63Z"/><path fill="#FF9800" opacity="1" d="M31.10-17.50L31.10-15.41L20.49-15.41L20.49 14.25L16.77 14.25L16.77-15.41L6.16-15.41L6.16-17.50L31.10-17.50Z"/><path fill="#FF9800" opacity="1" d="M57.72-13.49Q61.44-9.02 61.44-1.63Q61.44 5.77 57.72 10.23Q54.00 14.70 47.29 14.70L47.29 14.70Q40.53 14.70 36.81 10.23Q33.10 5.77 33.10-1.63Q33.10-9.02 36.81-13.49Q40.53-17.95 47.29-17.95L47.29-17.95Q54.00-17.95 57.72-13.49ZM56.07 5.63Q56.99 2.55 56.99-1.63Q56.99-5.80 56.07-8.88Q55.14-11.97 52.91-13.92Q50.69-15.87 47.29-15.87L47.29-15.87Q42.26-15.87 39.90-11.97Q37.54-8.07 37.54-1.63Q37.54 4.81 39.90 8.71Q42.26 12.61 47.29 12.61L47.29 12.61Q50.69 12.61 52.91 10.66Q55.14 8.71 56.07 5.63Z"/><path fill="#FF9800" opacity="1" d="M83.71-0.13L93.37 14.25L88.92 14.25L79.44 0.23Q75.86 0.23 71.96-0.49L71.96-0.49L71.96 14.25L68.24 14.25L68.24-17.50L71.87-17.50Q75.45-17.95 79.44-17.95L79.44-17.95Q85.11-17.95 88.58-15.71Q92.05-13.46 92.05-8.88L92.05-8.88Q92.05-5.21 89.83-3.05Q87.61-0.90 83.71-0.13L83.71-0.13ZM87.61-8.88L87.61-8.88Q87.61-11.88 85.18-13.87Q82.75-15.87 79.44-15.87L79.44-15.87Q75.54-15.87 71.96-15.41L71.96-15.41L71.96-2.58Q75.86-1.85 79.44-1.85L79.44-1.85Q82.75-1.85 85.18-3.85Q87.61-5.84 87.61-8.88Z"/><path fill="#FF9800" opacity="1" d="M109.96-17.50L121.48 14.25L117.54 14.25L113.50 3.14L100.62 3.14L96.49 14.25L94.27 14.25L106.02-17.50L109.96-17.50ZM101.39 1.05L112.73 1.05L107.11-14.46L101.39 1.05Z"/><path fill="#FF9800" opacity="1" d=""/></g><g transform="matrix(1 0 0 1 339.28253637967214 299.95976119062897)" style=""  ><path fill="#FF9800" opacity="1" d="M-170.22 5.59L-170.22 5.97Q-170.55 6.06-170.98 6.06L-170.98 6.06Q-171.31 6.06-171.73 5.99Q-172.16 5.91-172.61 5.66Q-173.05 5.40-173.48 4.90Q-173.91 4.41-174.21 3.59L-174.21 3.59L-174.69 2.36L-180.01 2.36L-181.53 5.97L-182.38 5.97L-177.06-6.57L-176.49-6.57L-172.31 3.59Q-172.09 4.13-171.89 4.50Q-171.69 4.87-171.44 5.09Q-171.19 5.32-170.91 5.44Q-170.62 5.55-170.22 5.59L-170.22 5.59ZM-177.35-3.91L-179.72 1.60L-175.07 1.60L-177.35-3.91Z"/><path fill="#FF9800" opacity="1" d="M-161.16 4.26L-161.16-1.82Q-161.60-2.03-162.06-2.21Q-162.53-2.39-162.97-2.39L-162.97-2.39Q-163.61-2.39-164.06-2.09Q-164.50-1.78-164.79-1.26Q-165.07-0.74-165.21-0.03Q-165.34 0.69-165.34 1.50L-165.34 1.50Q-165.34 2.32-165.22 3.03Q-165.09 3.75-164.82 4.27Q-164.54 4.79-164.13 5.09Q-163.73 5.40-163.16 5.40L-163.16 5.40Q-162.74 5.40-162.42 5.30Q-162.11 5.21-161.87 5.05Q-161.64 4.89-161.47 4.68Q-161.31 4.47-161.16 4.26L-161.16 4.26ZM-159.45-4.29L-159.45 5.97L-160.40 5.97L-161.07 5.11L-161.16 5.11Q-161.31 5.28-161.51 5.47Q-161.71 5.66-162.02 5.82Q-162.32 5.97-162.74 6.06Q-163.16 6.16-163.73 6.16L-163.73 6.16Q-164.58 6.16-165.23 5.79Q-165.87 5.42-166.30 4.79Q-166.73 4.16-166.94 3.32Q-167.15 2.47-167.15 1.50L-167.15 1.50Q-167.15 0.53-166.93-0.31Q-166.71-1.16-166.26-1.78Q-165.82-2.41-165.14-2.78Q-164.47-3.15-163.54-3.15L-163.54-3.15Q-162.74-3.15-162.17-2.97Q-161.60-2.79-161.16-2.58L-161.16-2.58L-161.16-4.29Q-161.16-5.15-161.40-5.67Q-161.64-6.19-162.49-6.19L-162.49-6.19L-162.87-6.19L-162.87-6.57L-161.16-6.57Q-160.67-6.57-160.33-6.49Q-160.00-6.40-159.80-6.14Q-159.60-5.89-159.53-5.44Q-159.45-4.99-159.45-4.29L-159.45-4.29Z"/><path fill="#FF9800" opacity="1" d="M-149.23 4.16L-149.23 1.60L-149.80 1.60Q-151.22 1.60-152.03 2.12Q-152.84 2.64-152.84 3.50L-152.84 3.50Q-152.84 3.95-152.69 4.30Q-152.53 4.64-152.29 4.87Q-152.04 5.09-151.72 5.20Q-151.39 5.30-151.03 5.30L-151.03 5.30Q-150.33 5.30-149.92 4.95Q-149.51 4.60-149.23 4.16L-149.23 4.16ZM-147.52 5.97L-148.47 5.97L-149.13 5.11L-149.23 5.11Q-149.51 5.47-150.16 5.82Q-150.81 6.16-151.89 6.16L-151.89 6.16Q-152.29 6.16-152.76 6.04Q-153.24 5.91-153.66 5.61Q-154.07 5.30-154.36 4.79Q-154.64 4.28-154.64 3.50L-154.64 3.50Q-154.64 2.72-154.24 2.21Q-153.85 1.69-153.18 1.39Q-152.52 1.09-151.64 0.96Q-150.77 0.84-149.80 0.84L-149.80 0.84L-149.23 0.84Q-149.23-0.15-149.38-0.79Q-149.53-1.42-149.80-1.77Q-150.06-2.13-150.43-2.26Q-150.81-2.39-151.22-2.39L-151.22-2.39Q-152.02-2.39-152.56-2.05Q-153.10-1.71-153.31-0.78L-153.31-0.78L-154.17-0.78Q-154.17-1.27-154.11-1.70Q-154.05-2.13-153.69-2.49L-153.69-2.49Q-153.52-2.66-153.21-2.79Q-152.90-2.92-152.52-3.00Q-152.14-3.08-151.71-3.11Q-151.28-3.15-150.84-3.15L-150.84-3.15Q-150.20-3.15-149.60-3.01Q-149.00-2.87-148.53-2.44Q-148.07-2.01-147.79-1.22Q-147.52-0.43-147.52 0.84L-147.52 0.84L-147.52 5.97Z"/><path fill="#FF9800" opacity="1" d="M-140.18-1.25L-140.18 4.83Q-139.75 5.04-139.28 5.22Q-138.82 5.40-138.38 5.40L-138.38 5.40Q-137.73 5.40-137.29 5.09Q-136.84 4.79-136.56 4.27Q-136.27 3.75-136.14 3.03Q-136.00 2.32-136.00 1.50L-136.00 1.50Q-136.00 0.69-136.13-0.03Q-136.25-0.74-136.53-1.26Q-136.80-1.78-137.21-2.09Q-137.62-2.39-138.19-2.39L-138.19-2.39Q-138.59-2.39-138.89-2.30Q-139.20-2.20-139.43-2.04Q-139.67-1.88-139.86-1.67Q-140.05-1.46-140.18-1.25L-140.18-1.25ZM-141.89 9.58L-141.89-0.68Q-141.89-1.54-142.13-2.06Q-142.37-2.58-143.22-2.58L-143.22-2.58L-143.60-2.58L-143.60-2.96L-141.89-2.96Q-141.17-2.96-140.80-2.75Q-140.43-2.54-140.28-2.11L-140.28-2.11L-140.18-2.11Q-139.90-2.47-139.29-2.81Q-138.68-3.15-137.62-3.15L-137.62-3.15Q-136.76-3.15-136.13-2.78Q-135.49-2.41-135.06-1.78Q-134.64-1.16-134.42-0.31Q-134.20 0.53-134.20 1.50L-134.20 1.50Q-134.20 2.47-134.42 3.32Q-134.64 4.16-135.08 4.79Q-135.53 5.42-136.20 5.79Q-136.88 6.16-137.81 6.16L-137.81 6.16Q-138.61 6.16-139.18 5.98Q-139.75 5.80-140.18 5.59L-140.18 5.59L-140.18 9.58L-141.89 9.58Z"/><path fill="#FF9800" opacity="1" d="M-128.90 3.69L-128.90-2.20L-130.23-2.20L-130.23-2.96L-128.90-2.96L-128.90-4.67L-127.95-5.81L-127.19-5.81L-127.19-2.96L-124.91-2.96L-124.91-2.20L-127.19-2.20L-127.19 3.69Q-127.19 5.40-125.86 5.40L-125.86 5.40Q-125.36 5.40-125.04 5.28Q-124.72 5.17-124.43 5.02L-124.43 5.02L-124.24 5.40Q-124.40 5.51-124.59 5.65Q-124.79 5.78-125.08 5.89Q-125.36 6.01-125.74 6.08Q-126.12 6.16-126.62 6.16L-126.62 6.16Q-127.63 6.16-128.26 5.57Q-128.90 4.98-128.90 3.69L-128.90 3.69Z"/><path fill="#FF9800" opacity="1" d="M-115.35 4.16L-115.35 1.60L-115.92 1.60Q-117.35 1.60-118.15 2.12Q-118.96 2.64-118.96 3.50L-118.96 3.50Q-118.96 3.95-118.81 4.30Q-118.66 4.64-118.41 4.87Q-118.16 5.09-117.84 5.20Q-117.52 5.30-117.16 5.30L-117.16 5.30Q-116.45 5.30-116.04 4.95Q-115.64 4.60-115.35 4.16L-115.35 4.16ZM-113.64 5.97L-114.59 5.97L-115.26 5.11L-115.35 5.11Q-115.64 5.47-116.28 5.82Q-116.93 6.16-118.01 6.16L-118.01 6.16Q-118.41 6.16-118.89 6.04Q-119.36 5.91-119.78 5.61Q-120.20 5.30-120.48 4.79Q-120.77 4.28-120.77 3.50L-120.77 3.50Q-120.77 2.72-120.37 2.21Q-119.97 1.69-119.30 1.39Q-118.64 1.09-117.76 0.96Q-116.89 0.84-115.92 0.84L-115.92 0.84L-115.35 0.84Q-115.35-0.15-115.50-0.79Q-115.66-1.42-115.92-1.77Q-116.19-2.13-116.56-2.26Q-116.93-2.39-117.35-2.39L-117.35-2.39Q-118.14-2.39-118.69-2.05Q-119.23-1.71-119.44-0.78L-119.44-0.78L-120.29-0.78Q-120.29-1.27-120.23-1.70Q-120.18-2.13-119.82-2.49L-119.82-2.49Q-119.65-2.66-119.33-2.79Q-119.02-2.92-118.64-3.00Q-118.26-3.08-117.83-3.11Q-117.40-3.15-116.97-3.15L-116.97-3.15Q-116.32-3.15-115.72-3.01Q-115.12-2.87-114.66-2.44Q-114.19-2.01-113.92-1.22Q-113.64-0.43-113.64 0.84L-113.64 0.84L-113.64 5.97Z"/><path fill="#FF9800" opacity="1" d="M-108.02 5.97L-108.02-0.68Q-108.02-1.54-108.25-2.06Q-108.49-2.58-109.35-2.58L-109.35-2.58L-109.73-2.58L-109.73-2.96L-108.02-2.96Q-107.30-2.96-106.92-2.76Q-106.55-2.56-106.40-2.20L-106.40-2.20L-106.31-2.20Q-105.95-2.56-105.32-2.86Q-104.69-3.15-103.84-3.15L-103.84-3.15Q-103.23-3.15-102.65-3.01Q-102.07-2.87-101.61-2.48Q-101.16-2.09-100.88-1.42Q-100.61-0.76-100.61 0.27L-100.61 0.27L-100.61 5.97L-102.32 5.97L-102.32 0.27Q-102.32-0.43-102.50-0.93Q-102.68-1.42-102.97-1.73Q-103.27-2.03-103.64-2.16Q-104.01-2.30-104.41-2.30L-104.41-2.30Q-104.98-2.30-105.46-1.99Q-105.95-1.69-106.31-1.29L-106.31-1.29L-106.31 5.97L-108.02 5.97Z"/><path fill="#FF9800" opacity="1" d="M-89.76 4.26L-89.76-1.82Q-90.20-2.03-90.66-2.21Q-91.13-2.39-91.56-2.39L-91.56-2.39Q-92.21-2.39-92.66-2.09Q-93.10-1.78-93.39-1.26Q-93.67-0.74-93.81-0.03Q-93.94 0.69-93.94 1.50L-93.94 1.50Q-93.94 2.32-93.81 3.03Q-93.69 3.75-93.42 4.27Q-93.14 4.79-92.73 5.09Q-92.32 5.40-91.75 5.40L-91.75 5.40Q-91.34 5.40-91.02 5.30Q-90.71 5.21-90.47 5.05Q-90.23 4.89-90.07 4.68Q-89.91 4.47-89.76 4.26L-89.76 4.26ZM-88.05-4.29L-88.05 5.97L-89.00 5.97L-89.66 5.11L-89.76 5.11Q-89.91 5.28-90.11 5.47Q-90.31 5.66-90.61 5.82Q-90.92 5.97-91.34 6.06Q-91.75 6.16-92.32 6.16L-92.32 6.16Q-93.18 6.16-93.82 5.79Q-94.47 5.42-94.90 4.79Q-95.33 4.16-95.53 3.32Q-95.74 2.47-95.74 1.50L-95.74 1.50Q-95.74 0.53-95.52-0.31Q-95.31-1.16-94.86-1.78Q-94.41-2.41-93.74-2.78Q-93.06-3.15-92.13-3.15L-92.13-3.15Q-91.34-3.15-90.77-2.97Q-90.20-2.79-89.76-2.58L-89.76-2.58L-89.76-4.29Q-89.76-5.15-90.00-5.67Q-90.23-6.19-91.09-6.19L-91.09-6.19L-91.47-6.19L-91.47-6.57L-89.76-6.57Q-89.26-6.57-88.93-6.49Q-88.60-6.40-88.40-6.14Q-88.20-5.89-88.12-5.44Q-88.05-4.99-88.05-4.29L-88.05-4.29Z"/><path fill="#FF9800" opacity="1" d="M-76.57 1.50L-76.57 1.50Q-76.57 0.69-76.74-0.03Q-76.91-0.74-77.23-1.26Q-77.54-1.78-77.98-2.09Q-78.42-2.39-78.95-2.39L-78.95-2.39Q-79.48-2.39-79.92-2.09Q-80.35-1.78-80.67-1.26Q-80.98-0.74-81.15-0.03Q-81.32 0.69-81.32 1.50L-81.32 1.50Q-81.32 2.32-81.15 3.03Q-80.98 3.75-80.67 4.27Q-80.35 4.79-79.92 5.09Q-79.48 5.40-78.95 5.40L-78.95 5.40Q-78.42 5.40-77.98 5.09Q-77.54 4.79-77.23 4.27Q-76.91 3.75-76.74 3.03Q-76.57 2.32-76.57 1.50ZM-83.13 1.50L-83.13 1.50Q-83.13 0.53-82.85-0.31Q-82.58-1.16-82.03-1.78Q-81.49-2.41-80.72-2.78Q-79.95-3.15-78.95-3.15L-78.95-3.15Q-77.96-3.15-77.18-2.78Q-76.40-2.41-75.86-1.78Q-75.32-1.16-75.04-0.31Q-74.77 0.53-74.77 1.50L-74.77 1.50Q-74.77 2.47-75.04 3.32Q-75.32 4.16-75.86 4.79Q-76.40 5.42-77.18 5.79Q-77.96 6.16-78.95 6.16L-78.95 6.16Q-79.95 6.16-80.72 5.79Q-81.49 5.42-82.03 4.79Q-82.58 4.16-82.85 3.32Q-83.13 2.47-83.13 1.50Z"/><path fill="#FF9800" opacity="1" d=""/><path fill="#FF9800" opacity="1" d="M-53.01-0.30L-53.01-0.30Q-53.01-1.65-53.29-2.74Q-53.56-3.84-54.08-4.60Q-54.59-5.37-55.33-5.78Q-56.07-6.19-57.00-6.19L-57.00-6.19Q-57.93-6.19-58.67-5.78Q-59.42-5.37-59.93-4.60Q-60.44-3.84-60.72-2.74Q-60.99-1.65-60.99-0.30L-60.99-0.30Q-60.99 1.05-60.72 2.14Q-60.44 3.23-59.93 4.00Q-59.42 4.77-58.67 5.18Q-57.93 5.59-57.00 5.59L-57.00 5.59Q-56.07 5.59-55.33 5.18Q-54.59 4.77-54.08 4.00Q-53.56 3.23-53.29 2.14Q-53.01 1.05-53.01-0.30ZM-62.89-0.30L-62.89-0.30Q-62.89-1.69-62.48-2.90Q-62.08-4.12-61.31-5.02Q-60.54-5.93-59.44-6.44Q-58.35-6.95-57.00-6.95L-57.00-6.95Q-55.65-6.95-54.56-6.44Q-53.47-5.93-52.70-5.02Q-51.93-4.12-51.52-2.90Q-51.11-1.69-51.11-0.30L-51.11-0.30Q-51.11 1.10-51.52 2.31Q-51.93 3.52-52.70 4.42Q-53.47 5.32-54.56 5.84Q-55.65 6.35-57.00 6.35L-57.00 6.35Q-58.35 6.35-59.44 5.84Q-60.54 5.32-61.31 4.42Q-62.08 3.52-62.48 2.31Q-62.89 1.10-62.89-0.30Z"/><path fill="#FF9800" opacity="1" d="M-44.18-1.25L-44.18 4.83Q-43.74 5.04-43.27 5.22Q-42.81 5.40-42.37 5.40L-42.37 5.40Q-41.73 5.40-41.28 5.09Q-40.83 4.79-40.55 4.27Q-40.26 3.75-40.13 3.03Q-40.00 2.32-40.00 1.50L-40.00 1.50Q-40.00 0.69-40.12-0.03Q-40.24-0.74-40.52-1.26Q-40.80-1.78-41.20-2.09Q-41.61-2.39-42.18-2.39L-42.18-2.39Q-42.58-2.39-42.89-2.30Q-43.19-2.20-43.43-2.04Q-43.66-1.88-43.85-1.67Q-44.04-1.46-44.18-1.25L-44.18-1.25ZM-45.89 9.58L-45.89-0.68Q-45.89-1.54-46.12-2.06Q-46.36-2.58-47.22-2.58L-47.22-2.58L-47.60-2.58L-47.60-2.96L-45.89-2.96Q-45.17-2.96-44.79-2.75Q-44.42-2.54-44.27-2.11L-44.27-2.11L-44.18-2.11Q-43.89-2.47-43.28-2.81Q-42.68-3.15-41.61-3.15L-41.61-3.15Q-40.76-3.15-40.12-2.78Q-39.48-2.41-39.06-1.78Q-38.63-1.16-38.41-0.31Q-38.19 0.53-38.19 1.50L-38.19 1.50Q-38.19 2.47-38.41 3.32Q-38.63 4.16-39.08 4.79Q-39.52 5.42-40.20 5.79Q-40.87 6.16-41.80 6.16L-41.80 6.16Q-42.60 6.16-43.17 5.98Q-43.74 5.80-44.18 5.59L-44.18 5.59L-44.18 9.58L-45.89 9.58Z"/><path fill="#FF9800" opacity="1" d="M-27.21 1.50L-27.21 1.50Q-27.21 0.69-27.38-0.03Q-27.55-0.74-27.87-1.26Q-28.18-1.78-28.62-2.09Q-29.05-2.39-29.59-2.39L-29.59-2.39Q-30.12-2.39-30.55-2.09Q-30.99-1.78-31.30-1.26Q-31.62-0.74-31.79-0.03Q-31.96 0.69-31.96 1.50L-31.96 1.50Q-31.96 2.32-31.79 3.03Q-31.62 3.75-31.30 4.27Q-30.99 4.79-30.55 5.09Q-30.12 5.40-29.59 5.40L-29.59 5.40Q-29.05 5.40-28.62 5.09Q-28.18 4.79-27.87 4.27Q-27.55 3.75-27.38 3.03Q-27.21 2.32-27.21 1.50ZM-33.77 1.50L-33.77 1.50Q-33.77 0.53-33.49-0.31Q-33.21-1.16-32.67-1.78Q-32.13-2.41-31.36-2.78Q-30.59-3.15-29.59-3.15L-29.59-3.15Q-28.60-3.15-27.82-2.78Q-27.04-2.41-26.50-1.78Q-25.96-1.16-25.68-0.31Q-25.41 0.53-25.41 1.50L-25.41 1.50Q-25.41 2.47-25.68 3.32Q-25.96 4.16-26.50 4.79Q-27.04 5.42-27.82 5.79Q-28.60 6.16-29.59 6.16L-29.59 6.16Q-30.59 6.16-31.36 5.79Q-32.13 5.42-32.67 4.79Q-33.21 4.16-33.49 3.32Q-33.77 2.47-33.77 1.50Z"/><path fill="#FF9800" opacity="1" d="M-20.33 5.97L-20.33-0.68Q-20.33-1.54-20.57-2.06Q-20.81-2.58-21.66-2.58L-21.66-2.58L-21.85-2.58L-21.85-2.96L-20.33-2.96Q-19.61-2.96-19.24-2.75Q-18.87-2.54-18.72-2.11L-18.72-2.11L-18.62-2.11Q-18.34-2.47-17.77-2.81Q-17.20-3.15-16.34-3.15L-16.34-3.15Q-16.06-3.15-15.73-3.08Q-15.41-3.02-15.20-2.87L-15.20-2.87Q-14.99-2.71-14.84-2.51Q-14.69-2.30-14.54-2.01L-14.54-2.01L-15.30-1.44Q-15.51-1.73-15.92-1.87Q-16.32-2.01-16.82-2.01L-16.82-2.01Q-17.39-2.01-17.86-1.75Q-18.34-1.50-18.62-1.06L-18.62-1.06L-18.62 5.97L-20.33 5.97Z"/><path fill="#FF9800" opacity="1" d="M-9.88 3.69L-9.88-2.20L-11.21-2.20L-11.21-2.96L-9.88-2.96L-9.88-4.67L-8.93-5.81L-8.17-5.81L-8.17-2.96L-5.89-2.96L-5.89-2.20L-8.17-2.20L-8.17 3.69Q-8.17 5.40-6.84 5.40L-6.84 5.40Q-6.35 5.40-6.03 5.28Q-5.70 5.17-5.42 5.02L-5.42 5.02L-5.23 5.40Q-5.38 5.51-5.58 5.65Q-5.78 5.78-6.06 5.89Q-6.35 6.01-6.73 6.08Q-7.11 6.16-7.60 6.16L-7.60 6.16Q-8.61 6.16-9.25 5.57Q-9.88 4.98-9.88 3.69L-9.88 3.69Z"/><path fill="#FF9800" opacity="1" d="M6.31-2.96L6.31 5.97L5.36 5.97L4.69 5.21L4.60 5.21Q4.23 5.57 3.61 5.86Q2.98 6.16 2.13 6.16L2.13 6.16Q1.52 6.16 0.94 6.02Q0.36 5.87-0.10 5.48Q-0.55 5.09-0.83 4.43Q-1.10 3.76-1.10 2.74L-1.10 2.74L-1.10-0.68Q-1.10-1.54-1.34-2.06Q-1.58-2.58-2.43-2.58L-2.43-2.58L-2.62-2.58L-2.62-2.96L-1.10-2.96Q-0.61-2.96-0.28-2.88Q0.05-2.79 0.25-2.53Q0.45-2.28 0.53-1.83Q0.61-1.38 0.61-0.68L0.61-0.68L0.61 2.74Q0.61 3.46 0.79 3.95Q0.97 4.43 1.26 4.73Q1.56 5.04 1.93 5.17Q2.30 5.30 2.70 5.30L2.70 5.30Q3.27 5.30 3.75 5.00Q4.23 4.70 4.60 4.30L4.60 4.30L4.60-2.96L6.31-2.96Z"/><path fill="#FF9800" opacity="1" d="M12.02 5.97L12.02-0.68Q12.02-1.54 11.79-2.06Q11.55-2.58 10.69-2.58L10.69-2.58L10.31-2.58L10.31-2.96L12.02-2.96Q12.75-2.96 13.12-2.76Q13.49-2.56 13.64-2.20L13.64-2.20L13.73-2.20Q14.10-2.56 14.72-2.86Q15.35-3.15 16.20-3.15L16.20-3.15Q16.81-3.15 17.39-3.01Q17.97-2.87 18.43-2.48Q18.88-2.09 19.16-1.42Q19.43-0.76 19.43 0.27L19.43 0.27L19.43 5.97L17.72 5.97L17.72 0.27Q17.72-0.43 17.54-0.93Q17.36-1.42 17.07-1.73Q16.77-2.03 16.40-2.16Q16.03-2.30 15.63-2.30L15.63-2.30Q15.06-2.30 14.58-1.99Q14.10-1.69 13.73-1.29L13.73-1.29L13.73 5.97L12.02 5.97Z"/><path fill="#FF9800" opacity="1" d="M26.77-0.68L26.77 5.97L25.06 5.97L25.06-0.68Q25.06-1.54 24.82-2.06Q24.58-2.58 23.73-2.58L23.73-2.58L23.35-2.58L23.35-2.96L25.06-2.96Q25.55-2.96 25.88-2.88Q26.22-2.79 26.42-2.53Q26.62-2.28 26.69-1.83Q26.77-1.38 26.77-0.68L26.77-0.68ZM26.65-4.96L26.65-4.96Q26.65-4.56 26.42-4.33Q26.18-4.10 25.78-4.10L25.78-4.10Q25.34-4.10 25.03-4.46Q24.72-4.82 24.72-5.32L24.72-5.32Q24.72-5.72 24.95-5.94Q25.19-6.17 25.59-6.17L25.59-6.17Q26.03-6.17 26.34-5.81Q26.65-5.45 26.65-4.96Z"/><path fill="#FF9800" opacity="1" d="M37.66 4.26L37.66-1.82Q37.22-2.03 36.75-2.21Q36.29-2.39 35.85-2.39L35.85-2.39Q35.20-2.39 34.76-2.09Q34.31-1.78 34.03-1.26Q33.74-0.74 33.61-0.03Q33.48 0.69 33.48 1.50L33.48 1.50Q33.48 2.32 33.60 3.03Q33.72 3.75 34.00 4.27Q34.27 4.79 34.68 5.09Q35.09 5.40 35.66 5.40L35.66 5.40Q36.08 5.40 36.39 5.30Q36.71 5.21 36.94 5.05Q37.18 4.89 37.34 4.68Q37.50 4.47 37.66 4.26L37.66 4.26ZM39.37-4.29L39.37 5.97L38.42 5.97L37.75 5.11L37.66 5.11Q37.50 5.28 37.30 5.47Q37.10 5.66 36.80 5.82Q36.50 5.97 36.08 6.06Q35.66 6.16 35.09 6.16L35.09 6.16Q34.24 6.16 33.59 5.79Q32.94 5.42 32.52 4.79Q32.09 4.16 31.88 3.32Q31.67 2.47 31.67 1.50L31.67 1.50Q31.67 0.53 31.89-0.31Q32.11-1.16 32.55-1.78Q33.00-2.41 33.67-2.78Q34.35-3.15 35.28-3.15L35.28-3.15Q36.08-3.15 36.65-2.97Q37.22-2.79 37.66-2.58L37.66-2.58L37.66-4.29Q37.66-5.15 37.42-5.67Q37.18-6.19 36.33-6.19L36.33-6.19L35.95-6.19L35.95-6.57L37.66-6.57Q38.15-6.57 38.48-6.49Q38.81-6.40 39.01-6.14Q39.21-5.89 39.29-5.44Q39.37-4.99 39.37-4.29L39.37-4.29Z"/><path fill="#FF9800" opacity="1" d="M49.59 4.16L49.59 1.60L49.02 1.60Q47.59 1.60 46.78 2.12Q45.98 2.64 45.98 3.50L45.98 3.50Q45.98 3.95 46.13 4.30Q46.28 4.64 46.53 4.87Q46.78 5.09 47.10 5.20Q47.42 5.30 47.78 5.30L47.78 5.30Q48.49 5.30 48.89 4.95Q49.30 4.60 49.59 4.16L49.59 4.16ZM51.30 5.97L50.35 5.97L49.68 5.11L49.59 5.11Q49.30 5.47 48.66 5.82Q48.01 6.16 46.93 6.16L46.93 6.16Q46.53 6.16 46.05 6.04Q45.58 5.91 45.16 5.61Q44.74 5.30 44.46 4.79Q44.17 4.28 44.17 3.50L44.17 3.50Q44.17 2.72 44.57 2.21Q44.97 1.69 45.64 1.39Q46.30 1.09 47.17 0.96Q48.05 0.84 49.02 0.84L49.02 0.84L49.59 0.84Q49.59-0.15 49.44-0.79Q49.28-1.42 49.02-1.77Q48.75-2.13 48.38-2.26Q48.01-2.39 47.59-2.39L47.59-2.39Q46.79-2.39 46.25-2.05Q45.71-1.71 45.50-0.78L45.50-0.78L44.65-0.78Q44.65-1.27 44.70-1.70Q44.76-2.13 45.12-2.49L45.12-2.49Q45.29-2.66 45.61-2.79Q45.92-2.92 46.30-3.00Q46.68-3.08 47.11-3.11Q47.54-3.15 47.97-3.15L47.97-3.15Q48.62-3.15 49.22-3.01Q49.82-2.87 50.28-2.44Q50.75-2.01 51.02-1.22Q51.30-0.43 51.30 0.84L51.30 0.84L51.30 5.97Z"/><path fill="#FF9800" opacity="1" d="M62.15 4.26L62.15-1.82Q61.71-2.03 61.24-2.21Q60.78-2.39 60.34-2.39L60.34-2.39Q59.70-2.39 59.25-2.09Q58.80-1.78 58.52-1.26Q58.23-0.74 58.10-0.03Q57.97 0.69 57.97 1.50L57.97 1.50Q57.97 2.32 58.09 3.03Q58.21 3.75 58.49 4.27Q58.76 4.79 59.17 5.09Q59.58 5.40 60.15 5.40L60.15 5.40Q60.57 5.40 60.88 5.30Q61.20 5.21 61.43 5.05Q61.67 4.89 61.83 4.68Q61.99 4.47 62.15 4.26L62.15 4.26ZM63.86-4.29L63.86 5.97L62.91 5.97L62.24 5.11L62.15 5.11Q61.99 5.28 61.79 5.47Q61.60 5.66 61.29 5.82Q60.99 5.97 60.57 6.06Q60.15 6.16 59.58 6.16L59.58 6.16Q58.73 6.16 58.08 5.79Q57.43 5.42 57.01 4.79Q56.58 4.16 56.37 3.32Q56.16 2.47 56.16 1.50L56.16 1.50Q56.16 0.53 56.38-0.31Q56.60-1.16 57.04-1.78Q57.49-2.41 58.17-2.78Q58.84-3.15 59.77-3.15L59.77-3.15Q60.57-3.15 61.14-2.97Q61.71-2.79 62.15-2.58L62.15-2.58L62.15-4.29Q62.15-5.15 61.91-5.67Q61.67-6.19 60.82-6.19L60.82-6.19L60.44-6.19L60.44-6.57L62.15-6.57Q62.64-6.57 62.97-6.49Q63.31-6.40 63.50-6.14Q63.70-5.89 63.78-5.44Q63.86-4.99 63.86-4.29L63.86-4.29Z"/><path fill="#FF9800" opacity="1" d="M76.38 1.03L76.34 1.79L70.58 1.79Q70.58 2.57 70.75 3.23Q70.92 3.90 71.26 4.38Q71.59 4.87 72.06 5.13Q72.54 5.40 73.15 5.40L73.15 5.40Q74.08 5.40 74.70 5.00Q75.31 4.60 75.81 3.88L75.81 3.88L76.19 4.16Q75.54 5.25 74.70 5.70Q73.85 6.16 72.77 6.16L72.77 6.16Q71.76 6.16 71.02 5.79Q70.28 5.42 69.77 4.79Q69.27 4.16 69.02 3.32Q68.78 2.47 68.78 1.50L68.78 1.50Q68.78 0.53 69.03-0.31Q69.29-1.16 69.78-1.78Q70.28-2.41 70.98-2.78Q71.68-3.15 72.58-3.15L72.58-3.15Q74.52-3.15 75.45-2.07Q76.38-0.99 76.38 1.03L76.38 1.03ZM70.58 1.03L74.57 1.03Q74.57-0.62 74.08-1.51Q73.58-2.39 72.58-2.39L72.58-2.39Q72.14-2.39 71.78-2.13Q71.42-1.88 71.15-1.42Q70.89-0.97 70.73-0.34Q70.58 0.29 70.58 1.03L70.58 1.03Z"/><path fill="#FF9800" opacity="1" d="M87.57 3.69L87.57 3.69Q87.57 4.30 87.31 4.75Q87.06 5.21 86.62 5.52Q86.18 5.84 85.56 6.00Q84.95 6.16 84.24 6.16L84.24 6.16Q83.10 6.16 82.38 5.96Q81.66 5.76 81.30 5.40L81.30 5.40Q80.94 5.04 80.88 4.58Q80.82 4.13 80.82 3.40L80.82 3.40L81.20 3.40Q81.36 4.33 82.00 4.87Q82.65 5.40 83.86 5.40L83.86 5.40Q84.95 5.40 85.45 5.02Q85.95 4.64 85.95 4.07L85.95 4.07Q85.95 3.50 85.53 3.11Q85.10 2.72 84.24 2.36L84.24 2.36L83.10 1.88Q82.02 1.45 81.42 0.85Q80.82 0.25 80.82-0.68L80.82-0.68Q80.82-1.29 81.06-1.75Q81.30-2.20 81.72-2.51Q82.13-2.83 82.70-2.99Q83.27-3.15 83.96-3.15L83.96-3.15Q85.04-3.15 85.74-2.95Q86.45-2.75 86.81-2.39L86.81-2.39Q87.17-2.03 87.23-1.57Q87.28-1.12 87.28-0.40L87.28-0.40L86.90-0.40Q86.75-1.33 86.11-1.86Q85.48-2.39 84.34-2.39L84.34-2.39Q83.41-2.39 82.92-2.01Q82.44-1.63 82.44-1.06L82.44-1.06Q82.44-0.57 82.84-0.16Q83.24 0.25 83.96 0.55L83.96 0.55L85.10 1.03Q86.31 1.52 86.94 2.11Q87.57 2.70 87.57 3.69Z"/><path fill="#FF9800" opacity="1" d=""/></g></svg>